<svg aria-hidden="true" style="position: absolute; width: 0; height: 0; overflow: hidden;" version="1.1" xmlns="http://www.w3.org/2000/svg" xmlns:xlink="http://www.w3.org/1999/xlink">
<defs>
<symbol id="icon-logo" viewBox="0 0 41 32">
<path fill="#ffe550" style="fill: var(--color1, #ffe550)" d="M14.121 6.486c1.014-1.99 3.864-1.99 4.878 0l1.263 2.476c0.397 0.767 1.126 1.315 1.992 1.456l0.016 0.002 2.759 0.439c2.203 0.351 3.082 3.042 1.508 4.62l-1.986 1.991c-0.492 0.493-0.796 1.173-0.796 1.925 0 0.15 0.012 0.296 0.035 0.439l-0.002-0.016 0.436 2.769c0.347 2.202-1.957 3.868-3.948 2.854l-2.472-1.258c-0.362-0.188-0.79-0.298-1.244-0.298s-0.882 0.11-1.26 0.306l0.015-0.007-2.471 1.258c-1.991 1.014-4.295-0.652-3.948-2.854l0.437-2.769c0.021-0.127 0.033-0.274 0.033-0.423 0-0.752-0.305-1.433-0.797-1.926v0l-1.986-1.99c-1.574-1.577-0.695-4.269 1.508-4.62l2.759-0.439c0.881-0.144 1.61-0.691 2.001-1.443l0.007-0.015 1.263-2.476z"></path>
<path fill="#2c2c2c" style="fill: var(--color2, #2c2c2c)" d="M1.118 20.356l-0.022 0.005c0.002 0.074-0.001 0.374-0.012 0.9-0.003 0.524-0.004 0.869-0.003 1.033 0 0.158-0.004 0.286-0.010 0.384l0.001 0.337c-0 0.105-0.008 0.207-0.022 0.308l0.001-0.012-0.018 0.207c-0.014 0.13-0.042 0.201-0.085 0.211-0.092 0.022-0.236-0.049-0.433-0.212-0.198-0.17-0.311-0.319-0.342-0.446s-0.037-1.061-0.021-2.8c0.023-1.74-0.023-2.885-0.137-3.434-0.011-0.035-0.017-0.075-0.017-0.116 0-0.056 0.011-0.11 0.032-0.159l-0.001 0.003c0.036-0.166 0.22-0.321 0.553-0.468 0.34-0.148 0.847-0.302 1.521-0.461 0.682-0.161 1.223-0.252 1.623-0.272 0.407-0.022 0.626 0.031 0.656 0.159 0.020 0.085-0.026 0.159-0.138 0.223-0.068 0.041-0.166 0.094-0.265 0.145l-0.034 0.015c-0.089 0.037-0.206 0.082-0.35 0.139-0.329 0.105-0.463 0.153-0.597 0.202l0.192-0.061c-0.126 0.037-0.289 0.091-0.49 0.161-0.194 0.068-0.374 0.133-0.538 0.194-0.167 0.055-0.392 0.134-0.675 0.238s-0.466 0.17-0.549 0.197c0.012 0.020 0.023 0.051 0.033 0.094 0.078 0.333 0.121 1.13 0.127 2.393 0.554-0.107 1.027-0.233 1.487-0.39l-0.078 0.023c0.501-0.164 0.809-0.258 0.922-0.286 0.27-0.063 0.418-0.039 0.445 0.074 0.052 0.22-0.214 0.477-0.796 0.772-0.575 0.294-1.229 0.526-1.96 0.7zM8.071 18.397c-0.058-0.247-0.154-0.465-0.283-0.66l0.005 0.007c-0.13-0.201-0.281-0.334-0.454-0.398-0.458 0.25-0.791 0.729-0.998 1.436-0.202 0.699-0.239 1.321-0.11 1.866s0.345 0.853 0.646 0.924c0.487-0.22 0.839-0.67 1.053-1.348 0.22-0.688 0.267-1.297 0.142-1.828zM5.292 19.155c0.118-0.611 0.334-1.141 0.647-1.589 0.32-0.457 0.689-0.735 1.108-0.834 0.426-0.101 0.823-0.004 1.193 0.289 0.368 0.287 0.613 0.689 0.735 1.206 0.121 0.511 0.12 1.064-0.001 1.661-0.123 0.59-0.363 1.114-0.719 1.572-0.351 0.449-0.772 0.732-1.262 0.849-0.362 0.086-0.703-0.009-1.023-0.286s-0.54-0.668-0.661-1.178c-0.122-0.517-0.128-1.080-0.017-1.69zM12.896 17.255c-0.058-0.247-0.153-0.465-0.282-0.66l0.005 0.007c-0.13-0.201-0.281-0.334-0.454-0.398-0.458 0.25-0.791 0.729-0.998 1.437-0.202 0.698-0.239 1.321-0.11 1.866s0.345 0.854 0.646 0.924c0.487-0.22 0.839-0.67 1.052-1.349 0.22-0.688 0.267-1.297 0.142-1.828zM10.118 18.013c0.118-0.611 0.334-1.141 0.647-1.589 0.319-0.457 0.689-0.735 1.108-0.834 0.426-0.101 0.823-0.004 1.193 0.29 0.368 0.287 0.613 0.689 0.735 1.206 0.121 0.51 0.121 1.063-0.001 1.66-0.124 0.602-0.375 1.132-0.726 1.581l0.006-0.008c-0.351 0.45-0.771 0.732-1.262 0.849-0.362 0.086-0.703-0.009-1.023-0.285s-0.54-0.669-0.661-1.179c-0.122-0.517-0.128-1.080-0.017-1.69zM17.934 11.014c0.113-0.027 0.277 0.047 0.49 0.22 0.219 0.165 0.351 0.34 0.394 0.524s0.079 0.729 0.106 1.636c0.025 0.898 0.029 1.836 0.012 2.812-0.022 2.19-0.114 3.303-0.278 3.342-0.099 0.023-0.223-0.010-0.373-0.102-0.143-0.101-0.226-0.197-0.248-0.289s-0.041-0.282-0.056-0.57c-0.529 0.873-1.052 1.371-1.57 1.494-0.313 0.074-0.63 0-0.953-0.223-0.316-0.225-0.51-0.489-0.582-0.794-0.103-0.439-0.11-0.987-0.018-1.644 0.107-0.712 0.332-1.352 0.656-1.93l-0.015 0.028c0.33-0.602 0.748-0.962 1.252-1.082s0.926 0.098 1.268 0.654c0.007-1.588-0.074-2.821-0.245-3.7-0.050-0.212 0.002-0.337 0.159-0.374zM17.995 16.508c-0.090-0.382-0.234-0.689-0.431-0.919-0.19-0.232-0.377-0.326-0.561-0.282-0.305 0.073-0.574 0.334-0.804 0.785-0.222 0.428-0.384 0.926-0.457 1.452l-0.003 0.025c-0.071 0.526-0.064 0.966 0.020 1.32 0.025 0.121 0.103 0.221 0.209 0.274l0.002 0.001c0.111 0.056 0.23 0.069 0.358 0.039 0.277-0.066 0.602-0.352 0.977-0.86 0.382-0.509 0.615-1.058 0.702-1.647l0.002-0.135-0.012-0.053zM24.793 15.864c0.137 0.581-0.010 1.132-0.441 1.652-0.434 0.514-0.991 0.852-1.673 1.013-0.674 0.16-1.273 0.118-1.795-0.125-0.524-0.25-0.823-0.53-0.897-0.842-0.050-0.212-0.011-0.334 0.117-0.364 0.113-0.027 0.377 0.090 0.791 0.351 0.156 0.090 0.353 0.163 0.591 0.219 0.245 0.054 0.489 0.053 0.73-0.004 0.497-0.118 0.907-0.35 1.231-0.695 0.33-0.347 0.46-0.67 0.39-0.967-0.046-0.191-0.231-0.406-0.557-0.642s-0.676-0.449-1.050-0.638c-0.401-0.215-0.743-0.434-1.066-0.677l0.021 0.015c-0.327-0.244-0.513-0.455-0.554-0.632-0.026-0.112-0.041-0.24-0.041-0.372 0-0.076 0.005-0.151 0.015-0.225l-0.001 0.009c0.025-0.215 0.068-0.378 0.132-0.491 0.205-0.37 0.568-0.751 1.090-1.145 0.529-0.394 0.993-0.638 1.39-0.732 0.206-0.049 0.396-0.023 0.569 0.078s0.278 0.226 0.314 0.375c0.017 0.071-0.044 0.145-0.184 0.223-0.126 0.074-0.336 0.184-0.549 0.29l-0.092 0.042c-0.283 0.134-0.53 0.275-0.743 0.423-0.743 0.505-1.080 0.902-1.011 1.193 0.037 0.156 0.555 0.493 1.555 1.012 0.385 0.201 0.748 0.455 1.091 0.763 0.348 0.299 0.558 0.597 0.628 0.895zM27.238 16.396c0.032 0.135 0.126 0.183 0.282 0.146 0.27-0.064 0.578-0.215 0.927-0.455 0.354-0.248 0.552-0.377 0.594-0.387 0.128-0.031 0.207 0.022 0.24 0.156 0.048 0.206-0.109 0.494-0.471 0.863-0.355 0.368-0.706 0.593-1.055 0.676-0.34 0.081-0.646 0.055-0.917-0.074-0.273-0.137-0.432-0.305-0.479-0.504s-0.063-0.46-0.050-0.784c0.012-0.332 0.036-0.768 0.074-1.308 0.042-0.549 0.070-1.001 0.084-1.355-0.315 0.157-0.529 0.249-0.643 0.276s-0.24-0.003-0.381-0.089c-0.135-0.095-0.215-0.196-0.24-0.302-0.041-0.17 0.383-0.442 1.269-0.817-0.011-0.618-0.071-1.154-0.178-1.607-0.050-0.213-0.004-0.336 0.138-0.369 0.121-0.029 0.288 0.014 0.503 0.127 0.212 0.107 0.342 0.256 0.386 0.447s0.065 0.542 0.058 1.052c0.229-0.084 0.548-0.181 0.873-0.265l0.083-0.018c0.426-0.1 0.661-0.059 0.705 0.126 0.025 0.106-0.071 0.222-0.289 0.348-0.21 0.125-0.667 0.349-1.37 0.673-0.017 0.594-0.053 1.28-0.11 2.057-0.058 0.769-0.068 1.231-0.032 1.387zM32.002 10.826c0.319-0.076 0.652 0.017 0.999 0.279 0.345 0.255 0.549 0.513 0.61 0.775 0.060 0.255 0.034 0.538-0.080 0.849 0.11 0.086 0.174 0.168 0.193 0.246 0.047 0.198 0.081 0.549 0.103 1.052 0.029 0.502 0.050 0.83 0.064 0.983 0.021 0.153 0.035 0.276 0.043 0.372 0.006 0.088 0.008 0.177 0.007 0.268 0.014 0.183-0.030 0.287-0.129 0.311-0.127 0.031-0.26-0.054-0.397-0.254-0.132-0.209-0.246-0.488-0.345-0.839-0.443 0.95-0.934 1.489-1.473 1.617-0.326 0.077-0.682 0.015-1.067-0.185-0.38-0.21-0.604-0.463-0.674-0.761-0.101-0.425-0.068-0.986 0.097-1.684 0.163-0.704 0.436-1.359 0.817-1.966s0.792-0.962 1.233-1.066zM32.934 12.58c-0.156-0.658-0.365-0.957-0.628-0.895-0.277 0.066-0.553 0.34-0.828 0.825-0.263 0.446-0.477 0.962-0.615 1.509l-0.009 0.041c-0.138 0.556-0.173 0.98-0.105 1.27 0.027 0.119 0.109 0.215 0.217 0.261l0.002 0.001c0.116 0.047 0.242 0.055 0.377 0.023 0.334-0.079 0.657-0.391 0.97-0.936 0.312-0.553 0.473-1.17 0.484-1.854-0.004-0.111 0.042-0.19 0.136-0.234l-0.002-0.011z"></path>
<path fill="#bbf330" style="fill: var(--color3, #bbf330)" d="M30.751 19.975c-0.305 0.080-0.545 0.306-0.642 0.597l-0.002 0.006c-1.907 5.652-7.247 9.717-13.529 9.717-3.81 0-7.274-1.495-9.835-3.934-0.165-0.16-0.391-0.259-0.64-0.259-0.075 0-0.149 0.009-0.219 0.026l0.006-0.001c-0.641 0.159-0.884 0.932-0.409 1.39 2.862 2.773 6.77 4.482 11.076 4.482 0.007 0 0.014 0 0.021 0h-0.001c7.079 0 13.084-4.606 15.186-10.986 0.207-0.626-0.371-1.198-1.013-1.040zM1.865 14.148c0.347-0.086 0.604-0.374 0.668-0.725 1.212-6.668 7.044-11.718 14.046-11.718 4.553 0 8.611 2.135 11.226 5.463 0.22 0.281 0.583 0.416 0.93 0.33 0.585-0.145 0.85-0.823 0.481-1.298-2.925-3.772-7.498-6.2-12.639-6.2-7.882 0-14.433 5.711-15.746 13.223-0.103 0.593 0.449 1.070 1.034 0.925zM40.615 5.332c-3.778 7.241-5.436 2.465-10.755 5.27 0.532-8.405 6.165-3.291 10.755-5.27z"></path>
</symbol>
<symbol id="icon-bg-offerings" viewBox="0 0 50 32">
<path fill="#ffe550" style="fill: var(--color1, #ffe550)" d="M0 6.183c17.961-10.704 39.456 11.675 49.709-6.183v32h-49.709v-25.817z"></path>
</symbol>
<symbol id="icon-bg-customers" viewBox="0 0 63 32">
<path fill="#ffe550" style="fill: var(--color1, #ffe550)" d="M0 29.091c22.677-11.646 50.275 17.005 63.308-7.022v-22.069h-63.308v29.091z"></path>
</symbol>
<symbol id="icon-order" viewBox="0 0 32 32">
<path fill="#fefefe" style="fill: var(--color4, #fefefe)" d="M32 16c0 8.837-7.163 16-16 16s-16-7.163-16-16c0-8.837 7.163-16 16-16s16 7.163 16 16z"></path>
<path fill="#7eb101" style="fill: var(--color5, #7eb101)" d="M15.667 6.222c1.348 0 2.5 0.471 3.455 1.411s1.433 2.085 1.433 3.433c0 0.77-0.167 1.496-0.5 2.178-0.343 0.694-0.819 1.273-1.4 1.725l-0.011 0.008h-0.756v-1.111c0.418-0.33 0.753-0.747 0.98-1.224l0.009-0.021c0.217-0.451 0.344-0.98 0.344-1.539 0-0.006 0-0.011-0-0.017v0.001c0-0.978-0.348-1.807-1.044-2.489s-1.533-1.023-2.511-1.023-1.815 0.341-2.511 1.023c-0.696 0.681-1.044 1.511-1.044 2.489 0 0.548 0.115 1.067 0.344 1.555 0.237 0.498 0.571 0.915 0.982 1.239l0.007 0.005v1.6c-0.819-0.421-1.483-1.043-1.944-1.801l-0.012-0.021c-0.446-0.724-0.711-1.601-0.711-2.54 0-0.013 0-0.027 0-0.040v0.002c0-1.348 0.477-2.493 1.433-3.433s2.107-1.411 3.455-1.411zM14.822 24.889c-0.251 0-0.489-0.048-0.711-0.144-0.224-0.097-0.416-0.228-0.578-0.389l-4.578-4.577 1.245-1.289c0.207-0.207 0.441-0.367 0.7-0.477 0.143-0.064 0.309-0.101 0.485-0.101 0.116 0 0.229 0.016 0.335 0.047l-0.009-0.002 1.733 0.4v-7.244c0-0.623 0.215-1.149 0.644-1.578s0.956-0.645 1.578-0.645 1.148 0.215 1.578 0.645c0.429 0.429 0.644 0.955 0.644 1.578v3.822h0.578c0.074 0 0.141 0.015 0.2 0.045s0.126 0.059 0.2 0.089l3.289 1.6c0.356 0.163 0.619 0.426 0.789 0.789s0.219 0.737 0.144 1.123l-0.8 4.844c-0.071 0.431-0.297 0.8-0.618 1.053l-0.004 0.003c-0.308 0.256-0.707 0.411-1.143 0.411-0.004 0-0.009-0-0.013-0h-5.689zM14.645 23.555h6.244l0.956-5.533-4.067-2.022h-1.223v-4.889c0-0.267-0.081-0.482-0.244-0.645s-0.378-0.245-0.645-0.245-0.481 0.082-0.645 0.245c-0.163 0.163-0.244 0.378-0.244 0.645v8.867l-3.423-0.733-0.511 0.511 3.8 3.8zM20.889 23.555v0z"></path>
</symbol>
<symbol id="icon-rocket" viewBox="0 0 32 32">
<path fill="#7eb101" style="fill: var(--color5, #7eb101)" d="M7.233 13.633l3.534 1.5c0.4-0.8 0.827-1.588 1.283-2.366s0.939-1.522 1.45-2.234l-2.633-0.533-3.634 3.633zM12.367 16.333l4.433 4.434c1.383-0.632 2.553-1.289 3.663-2.027l-0.096 0.060c1.11-0.733 2.010-1.444 2.7-2.133 1.8-1.8 3.122-3.645 3.966-5.534s1.3-4.022 1.367-6.4c-2.378 0.067-4.511 0.523-6.4 1.367s-3.733 2.167-5.533 3.967c-0.69 0.689-1.4 1.589-2.134 2.7-0.678 1.014-1.334 2.183-1.899 3.404l-0.067 0.162zM20 13.133c-0.444-0.444-0.667-0.994-0.667-1.65 0-0.655 0.223-1.205 0.667-1.65s0.994-0.666 1.65-0.666 1.206 0.222 1.65 0.666c0.444 0.445 0.667 0.995 0.667 1.65s-0.223 1.206-0.667 1.65c-0.444 0.445-0.994 0.667-1.65 0.667s-1.206-0.222-1.65-0.667zM19.5 25.9l3.633-3.633-0.533-2.634c-0.711 0.512-1.456 0.995-2.233 1.45-0.778 0.456-1.567 0.884-2.367 1.284l1.5 3.533zM30.367 2.767c0.2 3.022-0.178 5.777-1.134 8.266-0.955 2.49-2.533 4.834-4.733 7.034l-0.067 0.066-0.066 0.067 0.733 3.667c0.067 0.333 0.050 0.655-0.050 0.966-0.1 0.312-0.272 0.59-0.517 0.834l-5.7 5.733-2.833-6.6-5.667-5.667-6.6-2.833 5.734-5.7c0.244-0.244 0.522-0.417 0.833-0.517s0.633-0.116 0.967-0.050l3.666 0.734c0.019-0.020 0.041-0.036 0.066-0.049l0.001-0.001c0.026-0.014 0.048-0.030 0.067-0.050l0-0c2.2-2.2 4.544-3.784 7.033-4.75s5.244-1.35 8.267-1.15zM5.967 21.167c0.777-0.778 1.727-1.173 2.85-1.184 1.122-0.010 2.072 0.373 2.85 1.15 0.777 0.778 1.16 1.728 1.15 2.85-0.011 1.123-0.406 2.073-1.184 2.85-0.577 0.578-1.472 1.056-2.683 1.434s-3.028 0.733-5.45 1.066c0.333-2.422 0.683-4.244 1.050-5.466s0.839-2.123 1.417-2.7zM7.367 22.6c-0.311 0.333-0.59 0.856-0.834 1.567s-0.455 1.622-0.633 2.733c1.111-0.178 2.022-0.389 2.733-0.633 0.711-0.245 1.234-0.523 1.567-0.834 0.422-0.377 0.639-0.85 0.65-1.416 0.001-0.018 0.001-0.040 0.001-0.061 0-0.555-0.223-1.057-0.584-1.423l0 0c-0.366-0.361-0.869-0.584-1.423-0.584-0.021 0-0.043 0-0.064 0.001l0.003-0c-0.565 0.001-1.071 0.252-1.414 0.648l-0.002 0.002z"></path>
</symbol>
</defs>
</svg>
